<svg width="1910" height="644" viewBox="0 0 1910 644" fill="none" xmlns="http://www.w3.org/2000/svg">
<rect x="1757.5" y="297.5" width="297" height="147" transform="rotate(-180 1757.5 297.5)" stroke="#5AB6CC" stroke-width="3" stroke-linejoin="round"/>
<rect x="1313.5" y="297.5" width="297" height="147" transform="rotate(-180 1313.5 297.5)" stroke="#5AB6CC" stroke-width="3"/>
<rect x="542.5" y="333.5" width="297" height="147" transform="rotate(-180 542.5 333.5)" stroke="#5AB6CC" stroke-width="3"/>
<rect x="1904.5" y="150.5" width="147" height="72" transform="rotate(-180 1904.5 150.5)" stroke="#5AB6CC" stroke-width="3" stroke-linejoin="round"/>
<rect x="1459.5" y="109.5" width="147" height="72" transform="rotate(-180 1459.5 109.5)" stroke="#5AB6CC" stroke-width="3" stroke-linejoin="round"/>
<rect x="858.5" y="480.5" width="147" height="72" transform="rotate(-180 858.5 480.5)" stroke="#5AB6CC" stroke-width="3" stroke-linejoin="round"/>
<rect x="542.5" y="520.5" width="147" height="72" transform="rotate(-180 542.5 520.5)" stroke="#5AB6CC" stroke-width="3" stroke-linejoin="round"/>
<rect x="297.5" y="568.5" width="147" height="72" transform="rotate(-180 297.5 568.5)" stroke="#5AB6CC" stroke-width="3" stroke-linejoin="round"/>
<rect x="223.5" y="640.5" width="147" height="72" transform="rotate(-180 223.5 640.5)" stroke="#5AB6CC" stroke-width="3" stroke-linejoin="round"/>
<rect x="150.5" y="496.5" width="147" height="72" transform="rotate(-180 150.5 496.5)" stroke="#5AB6CC" stroke-width="3" stroke-linejoin="round"/>
<rect x="148.5" y="258.5" width="147" height="72" transform="rotate(-180 148.5 258.5)" stroke="#5AB6CC" stroke-width="3" stroke-linejoin="round"/>
<rect x="298.5" y="370.5" width="147" height="72" transform="rotate(-180 298.5 370.5)" stroke="#5AB6CC" stroke-width="3" stroke-linejoin="round"/>
<rect x="424.5" y="110.5" width="147" height="72" transform="rotate(-180 424.5 110.5)" stroke="#5AB6CC" stroke-width="3" stroke-linejoin="round"/>
<rect x="349.5" y="73.5" width="147" height="72" transform="rotate(-180 349.5 73.5)" stroke="#5AB6CC" stroke-width="3" stroke-linejoin="round"/>
<rect x="925.5" y="408.5" width="147" height="72" transform="rotate(-180 925.5 408.5)" stroke="#5AB6CC" stroke-width="3" stroke-linejoin="round"/>
<rect x="926.5" y="184.5" width="147" height="72" transform="rotate(-180 926.5 184.5)" stroke="#5AB6CC" stroke-width="3" stroke-linejoin="round"/>
<rect x="1073.5" y="256.5" width="147" height="72" transform="rotate(-180 1073.5 256.5)" stroke="#5AB6CC" stroke-width="3" stroke-linejoin="round"/>
<rect x="779.5" y="256.5" width="147" height="72" transform="rotate(-180 779.5 256.5)" stroke="#5AB6CC" stroke-width="3" stroke-linejoin="round"/>
<rect x="1757.5" y="258.5" width="147" height="72" transform="rotate(-180 1757.5 258.5)" stroke="#5AB6CC" stroke-width="3" stroke-linejoin="round"/>
<rect x="1460.5" y="369.5" width="147" height="72" transform="rotate(-180 1460.5 369.5)" stroke="#5AB6CC" stroke-width="3" stroke-linejoin="round"/>
</svg>
